<svg xmlns="http://www.w3.org/2000/svg" viewBox="0 0 1200 630" width="1200" height="630" role="img" aria-label="SmartGen article">
  <title>SmartGen article</title>
  <defs>
    <linearGradient id="bg" x1="0" y1="0" x2="1" y2="1">
      <stop offset="0%" stop-color="#0f172a"/>
      <stop offset="100%" stop-color="#1e293b"/>
    </linearGradient>
  </defs>
  <rect width="1200" height="630" fill="url(#bg)"/>
  <g transform="translate(487 210) scale(4.4)">
    <path d="M10 30 Q10 10 30 10 L45 10 Q55 10 55 20 L55 25 L45 25 L45 20 Q45 18 40 18 L30 18 Q20 18 20 30 Q20 42 30 42 L40 42 Q45 42 45 40 L45 35 L55 35 L55 40 Q55 50 45 50 L30 50 Q10 50 10 30" fill="#2563eb"/>
    <path d="M32 15 L45 30 L35 30 L40 45 L27 30 L37 30 Z" fill="#ff8800"/>
  </g>
  <text x="600" y="500" text-anchor="middle" font-family="Inter, system-ui, -apple-system, sans-serif"
        font-size="46" font-weight="700" fill="#f8fafc">SmartGen</text>
  <text x="600" y="548" text-anchor="middle" font-family="Inter, system-ui, -apple-system, sans-serif"
        font-size="24" font-weight="500" fill="#94a3b8">Free, privacy-first web tools</text>
</svg>
