<svg width="1200" height="630" viewBox="0 0 1200 630" xmlns="http://www.w3.org/2000/svg">
  <defs>
    <linearGradient id="bgGrad2" x1="0%" y1="0%" x2="100%" y2="100%">
      <stop offset="0%" stop-color="#1D2646"/>
      <stop offset="55%" stop-color="#161C38"/>
      <stop offset="100%" stop-color="#0D1126"/>
    </linearGradient>
    <pattern id="grid" width="40" height="40" patternUnits="userSpaceOnUse">
      <path d="M40 0H0V40" fill="none" stroke="#FFFFFF" stroke-opacity="0.045" stroke-width="1"/>
    </pattern>
    <radialGradient id="towerGlow" cx="50%" cy="50%" r="50%">
      <stop offset="0%" stop-color="#F4A825" stop-opacity="0.30"/>
      <stop offset="100%" stop-color="#F4A825" stop-opacity="0"/>
    </radialGradient>
    <linearGradient id="barGrad2" x1="0%" y1="0%" x2="100%" y2="0%">
      <stop offset="0%" stop-color="#0D1126"/>
      <stop offset="100%" stop-color="#1B2246"/>
    </linearGradient>
  </defs>

  <rect width="1200" height="630" fill="url(#bgGrad2)"/>
  <rect width="1200" height="630" fill="url(#grid)"/>

  <text x="80" y="112" font-family="'JetBrains Mono','Courier New',monospace" font-size="15" letter-spacing="3" fill="#F4A825" font-weight="700">SMARTGEN COURSE · BUILD A WEBSITE</text>

  <text x="78" y="182" font-family="'Sora','Poppins',sans-serif" font-size="45" font-weight="700" fill="#FFFFFF">How to Build a WordPress</text>
  <text x="78" y="240" font-family="'Sora','Poppins',sans-serif" font-size="45" font-weight="700" fill="#FFFFFF">Website From Scratch</text>

  <text x="80" y="286" font-family="'Inter',Helvetica,Arial,sans-serif" font-size="19" fill="#AEB4D6">cPanel, domain connection, installation, theme &amp; plugins</text>

  <text x="80" y="326" font-family="'Inter',Helvetica,Arial,sans-serif" font-size="15" fill="#7B82AC">A Complete A to Z Guide · By Sayad Md Bayezid Hosan</text>

  <g font-family="'Inter',Helvetica,Arial,sans-serif" font-size="13" font-weight="600">
    <rect x="80" y="358" width="94" height="30" rx="15" fill="none" stroke="#3A3F76" stroke-width="1.5"/>
    <text x="99" y="377" fill="#C7CBEA">cPanel</text>

    <rect x="186" y="358" width="112" height="30" rx="15" fill="none" stroke="#3A3F76" stroke-width="1.5"/>
    <text x="205" y="377" fill="#C7CBEA">SSL Secure</text>

    <rect x="310" y="358" width="112" height="30" rx="15" fill="none" stroke="#3A3F76" stroke-width="1.5"/>
    <text x="329" y="377" fill="#C7CBEA">SEO Theme</text>

    <rect x="434" y="358" width="98" height="30" rx="15" fill="none" stroke="#3A3F76" stroke-width="1.5"/>
    <text x="453" y="377" fill="#C7CBEA">Plugins</text>
  </g>

  <g transform="translate(820,45)">
    <circle cx="150" cy="260" r="180" fill="url(#towerGlow)"/>

    <line x1="150" y1="70" x2="150" y2="160" stroke="#9AA0C8" stroke-width="3"/>
    <path d="M150,70 L150,96 L188,83 Z" fill="#2FD3C3"/>
    <text x="196" y="90" font-family="'JetBrains Mono',monospace" font-size="12" font-weight="700" fill="#2FD3C3">LIVE</text>

    <rect x="75" y="112" width="150" height="48" rx="10" fill="#FF7A45"/>
    <text x="150" y="141" text-anchor="middle" font-family="'Sora',sans-serif" font-size="14" font-weight="700" fill="#2A1608">06 Plugins</text>

    <rect x="60" y="166" width="180" height="48" rx="10" fill="#F4A825"/>
    <text x="150" y="195" text-anchor="middle" font-family="'Sora',sans-serif" font-size="14" font-weight="700" fill="#2A1608">05 SEO Theme</text>

    <rect x="45" y="220" width="210" height="48" rx="10" fill="#8FA6E8"/>
    <text x="150" y="249" text-anchor="middle" font-family="'Sora',sans-serif" font-size="14" font-weight="700" fill="#101A3D">04 Essential Setup</text>

    <rect x="30" y="274" width="240" height="48" rx="10" fill="#4C8DFF"/>
    <text x="150" y="303" text-anchor="middle" font-family="'Sora',sans-serif" font-size="14" font-weight="700" fill="#FFFFFF">03 Install WordPress</text>

    <rect x="15" y="328" width="270" height="48" rx="10" fill="#3F6FA0"/>
    <text x="150" y="357" text-anchor="middle" font-family="'Sora',sans-serif" font-size="14" font-weight="700" fill="#FFFFFF">02 Connect Domain</text>

    <rect x="0" y="382" width="300" height="48" rx="10" fill="#35507A"/>
    <text x="150" y="411" text-anchor="middle" font-family="'Sora',sans-serif" font-size="14" font-weight="700" fill="#FFFFFF">01 What Is cPanel?</text>

    <line x1="-10" y1="436" x2="310" y2="436" stroke="#9AA0C8" stroke-width="2" stroke-dasharray="2 4"/>
  </g>

  <g transform="translate(80,500)">
    <rect x="0" y="0" width="1040" height="68" rx="14" fill="url(#barGrad2)" stroke="#2B2F63" stroke-width="1.5"/>
    <circle cx="28" cy="22" r="5" fill="#FF7A45"/>
    <circle cx="48" cy="22" r="5" fill="#F4A825"/>
    <circle cx="68" cy="22" r="5" fill="#2FD3C3"/>
    <text x="28" y="50" font-family="'JetBrains Mono','Courier New',monospace" font-size="16">
      <tspan fill="#6B7196" text-decoration="line-through">yourdomain.com/?p=123</tspan><tspan fill="#7B82AC">  →  </tspan><tspan fill="#F4A825" font-weight="700">yourdomain.com/your-post-title/</tspan>
    </text>
  </g>
</svg>
