<svg xmlns="http://www.w3.org/2000/svg" viewBox="0 0 1600 900" role="img" aria-labelledby="t d"><title id="t">Video Marketing Through YouTube</title><desc id="d">A YouTube video marketing system connects channel optimization, content creation, on-page SEO, and off-page authority.</desc><defs><linearGradient id="b" x1="0" y1="0" x2="1" y2="1"><stop stop-color="#fff8f8"/><stop offset="1" stop-color="#ffe8ec"/></linearGradient></defs><rect width="1600" height="900" fill="url(#b)"/><text x="80" y="120" font-family="Arial" font-size="48" font-weight="800" fill="#7b1628">Video Marketing</text><text x="80" y="182" font-family="Arial" font-size="54" font-weight="800" fill="#d92d45">Through YouTube</text><text x="84" y="232" font-family="Arial" font-size="26" fill="#995866">Create videos people find, watch, trust, and share</text><g stroke="#d92d45" stroke-width="5" fill="none"><path d="M560 465 H700"/><path d="M900 465 H1040"/><path d="M1240 465 H1360"/></g><g fill="#d92d45"><path d="M700 465 l-22-15 v30z"/><path d="M1040 465 l-22-15 v30z"/><path d="M1360 465 l-22-15 v30z"/></g><g fill="#fff" stroke="#e8b6bf" stroke-width="2"><rect x="100" y="330" width="460" height="280" rx="25"/><rect x="700" y="330" width="200" height="270" rx="22"/><rect x="1040" y="330" width="200" height="270" rx="22"/><rect x="1360" y="330" width="200" height="270" rx="22"/></g><rect x="145" y="375" width="370" height="170" rx="18" fill="#ffe0e5"/><circle cx="330" cy="460" r="58" fill="#d92d45"/><path d="M312 430 l55 30-55 30z" fill="#fff"/><text x="195" y="580" font-family="Arial" font-size="22" font-weight="700" fill="#7b1628">CHANNEL + CONTENT</text><circle cx="800" cy="415" r="42" fill="#d92d45"/><path d="M776 415 h48 M800 391 v48" stroke="#fff" stroke-width="8" stroke-linecap="round"/><text x="745" y="500" font-family="Arial" font-size="22" font-weight="700" fill="#7b1628">OPTIMIZE</text><text x="734" y="530" font-family="Arial" font-size="16" fill="#995866">channel setup</text><circle cx="1140" cy="415" r="42" fill="#ed9f35"/><path d="M1118 415 l16 16 30-36" fill="none" stroke="#fff" stroke-width="8" stroke-linecap="round" stroke-linejoin="round"/><text x="1085" y="500" font-family="Arial" font-size="22" font-weight="700" fill="#7b1628">CREATE</text><text x="1075" y="530" font-family="Arial" font-size="16" fill="#995866">retain viewers</text><circle cx="1460" cy="415" r="42" fill="#5a58c9"/><path d="M1438 435 l18-34 16 17 24-36" fill="none" stroke="#fff" stroke-width="8" stroke-linecap="round"/><text x="1400" y="500" font-family="Arial" font-size="22" font-weight="700" fill="#7b1628">GROW</text><text x="1382" y="530" font-family="Arial" font-size="16" fill="#995866">SEO + authority</text><text x="95" y="815" font-family="Arial" font-size="25" font-weight="700" fill="#7b1628">FINDABLE VIDEOS • WATCHABLE STORIES • SHAREABLE AUTHORITY</text></svg>
